<svg width="32" height="32" viewBox="0 0 32 32" fill="none" xmlns="http://www.w3.org/2000/svg">
<g clip-path="url(#clip0_534_478)">
<rect width="32" height="32" rx="9.625" fill="white"/>
<g clip-path="url(#clip1_534_478)">
<path d="M18.668 24.3262C19.3945 24.3262 19.9835 23.7385 19.9835 23.0135C19.9835 22.2885 19.3945 21.7008 18.668 21.7008C17.9415 21.7008 17.3525 22.2885 17.3525 23.0135C17.3525 23.7385 17.9415 24.3262 18.668 24.3262Z" fill="url(#paint0_linear_534_478)"/>
<path d="M21.1126 23.0791C21.8391 23.0791 22.4281 22.4914 22.4281 21.7664C22.4281 21.0414 21.8391 20.4537 21.1126 20.4537C20.3861 20.4537 19.7971 21.0414 19.7971 21.7664C19.7971 22.4914 20.3861 23.0791 21.1126 23.0791Z" fill="url(#paint1_linear_534_478)"/>
<path d="M23.053 21.1429C23.7795 21.1429 24.3685 20.5552 24.3685 19.8303C24.3685 19.1053 23.7795 18.5176 23.053 18.5176C22.3265 18.5176 21.7375 19.1053 21.7375 19.8303C21.7375 20.5552 22.3265 21.1429 23.053 21.1429Z" fill="url(#paint2_linear_534_478)"/>
<path d="M24.3025 18.7035C25.0291 18.7035 25.618 18.1158 25.618 17.3908C25.618 16.6658 25.0291 16.0781 24.3025 16.0781C23.576 16.0781 22.9871 16.6658 22.9871 17.3908C22.9871 18.1158 23.576 18.7035 24.3025 18.7035Z" fill="url(#paint3_linear_534_478)"/>
<path d="M24.7303 16.0016C25.4568 16.0016 26.0458 15.4139 26.0458 14.6889C26.0458 13.9639 25.4568 13.3762 24.7303 13.3762C24.0038 13.3762 23.4148 13.9639 23.4148 14.6889C23.4148 15.4139 24.0038 16.0016 24.7303 16.0016Z" fill="url(#paint4_linear_534_478)"/>
<path d="M24.3025 13.2996C25.0291 13.2996 25.618 12.7119 25.618 11.9869C25.618 11.2619 25.0291 10.6742 24.3025 10.6742C23.576 10.6742 22.9871 11.2619 22.9871 11.9869C22.9871 12.7119 23.576 13.2996 24.3025 13.2996Z" fill="url(#paint5_linear_534_478)"/>
<path d="M23.053 10.8602C23.7795 10.8602 24.3685 10.2725 24.3685 9.54755C24.3685 8.82257 23.7795 8.23486 23.053 8.23486C22.3265 8.23486 21.7375 8.82257 21.7375 9.54755C21.7375 10.2725 22.3265 10.8602 23.053 10.8602Z" fill="url(#paint6_linear_534_478)"/>
<path d="M21.1126 8.92407C21.8391 8.92407 22.4281 8.33636 22.4281 7.61139C22.4281 6.88641 21.8391 6.29871 21.1126 6.29871C20.3861 6.29871 19.7971 6.88641 19.7971 7.61139C19.7971 8.33636 20.3861 8.92407 21.1126 8.92407Z" fill="url(#paint7_linear_534_478)"/>
<path d="M18.668 7.677C19.3945 7.677 19.9835 7.08929 19.9835 6.36432C19.9835 5.63934 19.3945 5.05164 18.668 5.05164C17.9415 5.05164 17.3525 5.63934 17.3525 6.36432C17.3525 7.08929 17.9415 7.677 18.668 7.677Z" fill="url(#paint8_linear_534_478)"/>
<path d="M15.9603 7.25037C16.6868 7.25037 17.2757 6.66266 17.2757 5.93768C17.2757 5.21271 16.6868 4.625 15.9603 4.625C15.2337 4.625 14.6448 5.21271 14.6448 5.93768C14.6448 6.66266 15.2337 7.25037 15.9603 7.25037Z" fill="url(#paint9_linear_534_478)"/>
<path d="M13.2527 7.677C13.9793 7.677 14.5682 7.08929 14.5682 6.36432C14.5682 5.63934 13.9793 5.05164 13.2527 5.05164C12.5262 5.05164 11.9373 5.63934 11.9373 6.36432C11.9373 7.08929 12.5262 7.677 13.2527 7.677Z" fill="url(#paint10_linear_534_478)"/>
<path d="M10.8082 8.92407C11.5347 8.92407 12.1236 8.33636 12.1236 7.61139C12.1236 6.88641 11.5347 6.29871 10.8082 6.29871C10.0816 6.29871 9.49268 6.88641 9.49268 7.61139C9.49268 8.33636 10.0816 8.92407 10.8082 8.92407Z" fill="url(#paint11_linear_534_478)"/>
<path d="M8.86773 10.8602C9.59424 10.8602 10.1832 10.2725 10.1832 9.54755C10.1832 8.82257 9.59424 8.23486 8.86773 8.23486C8.14121 8.23486 7.55225 8.82257 7.55225 9.54755C7.55225 10.2725 8.14121 10.8602 8.86773 10.8602Z" fill="url(#paint12_linear_534_478)"/>
<path d="M7.61797 13.2996C8.34449 13.2996 8.93345 12.7119 8.93345 11.9869C8.93345 11.2619 8.34449 10.6742 7.61797 10.6742C6.89145 10.6742 6.30249 11.2619 6.30249 11.9869C6.30249 12.7119 6.89145 13.2996 7.61797 13.2996Z" fill="url(#paint13_linear_534_478)"/>
<path d="M7.19048 16.0016C7.917 16.0016 8.50596 15.4139 8.50596 14.6889C8.50596 13.9639 7.917 13.3762 7.19048 13.3762C6.46396 13.3762 5.875 13.9639 5.875 14.6889C5.875 15.4139 6.46396 16.0016 7.19048 16.0016Z" fill="url(#paint14_linear_534_478)"/>
<path d="M7.61797 18.7035C8.34449 18.7035 8.93345 18.1158 8.93345 17.3908C8.93345 16.6658 8.34449 16.0781 7.61797 16.0781C6.89145 16.0781 6.30249 16.6658 6.30249 17.3908C6.30249 18.1158 6.89145 18.7035 7.61797 18.7035Z" fill="url(#paint15_linear_534_478)"/>
<path d="M8.86773 21.1429C9.59424 21.1429 10.1832 20.5552 10.1832 19.8303C10.1832 19.1053 9.59424 18.5176 8.86773 18.5176C8.14121 18.5176 7.55225 19.1053 7.55225 19.8303C7.55225 20.5552 8.14121 21.1429 8.86773 21.1429Z" fill="url(#paint16_linear_534_478)"/>
<path d="M10.8082 23.0791C11.5347 23.0791 12.1236 22.4914 12.1236 21.7664C12.1236 21.0414 11.5347 20.4537 10.8082 20.4537C10.0816 20.4537 9.49268 21.0414 9.49268 21.7664C9.49268 22.4914 10.0816 23.0791 10.8082 23.0791Z" fill="url(#paint17_linear_534_478)"/>
<path d="M13.2527 24.3262C13.9793 24.3262 14.5682 23.7385 14.5682 23.0135C14.5682 22.2885 13.9793 21.7008 13.2527 21.7008C12.5262 21.7008 11.9373 22.2885 11.9373 23.0135C11.9373 23.7385 12.5262 24.3262 13.2527 24.3262Z" fill="url(#paint18_linear_534_478)"/>
<path d="M17.3416 23.6316C17.3416 24.5286 16.4153 25.4529 16.0754 25.7592C16.0042 25.8249 15.9 25.8249 15.8288 25.7592C15.489 25.4584 14.5681 24.5724 14.5681 23.6316C14.5681 22.8385 15.2039 22.1931 15.9548 22.1931C16.7058 22.1931 17.3416 22.833 17.3416 23.6316Z" fill="url(#paint19_linear_534_478)"/>
<path d="M13.7295 29.1667H18.0815C18.0815 29.1667 17.7362 27.8157 17.654 27.3782C17.5773 26.9789 17.3799 25.6881 15.9055 25.6881C14.3653 25.7264 14.2502 26.9461 14.157 27.4274C14.0638 27.9033 13.7295 29.1667 13.7295 29.1667Z" fill="url(#paint20_linear_534_478)"/>
<path d="M13.128 13.3865C13.1302 13.5824 13.1357 13.7838 13.1446 13.9908C13.1536 14.1956 13.158 14.4015 13.158 14.6085C13.158 14.6775 13.1569 14.7354 13.1547 14.7821C13.1547 14.8266 13.1536 14.8834 13.1513 14.9524H13.6288V15.7804H13.0478C12.9966 16.003 12.9232 16.2111 12.8275 16.4047C12.7318 16.5984 12.6071 16.7676 12.4535 16.9122C12.2999 17.0569 12.113 17.1704 11.8926 17.2528C11.6722 17.3374 11.4118 17.3797 11.1113 17.3797V16.5517C11.2983 16.5517 11.4574 16.5238 11.5888 16.4682C11.7223 16.4148 11.8336 16.3413 11.9227 16.2478C12.0139 16.1543 12.0863 16.0442 12.1397 15.9173C12.1931 15.7904 12.2332 15.6546 12.2599 15.51C12.2888 15.363 12.3066 15.2106 12.3133 15.0525C12.3222 14.8945 12.3266 14.7376 12.3266 14.5818C12.3266 14.3725 12.3222 14.1611 12.3133 13.9474C12.3066 13.7337 12.3033 13.5256 12.3033 13.323H13.1346L13.128 13.3865Z" fill="url(#paint21_linear_534_478)"/>
<path d="M13.5687 14.9524H16.7205V14.6786C16.7205 14.5762 16.7171 14.4972 16.7105 14.4415C16.7038 14.3837 16.6882 14.3414 16.6637 14.3147C16.6415 14.288 16.607 14.2713 16.5602 14.2646C16.5157 14.2579 16.4534 14.2546 16.3733 14.2546C16.0906 14.2546 15.8101 14.2535 15.5319 14.2512C15.2536 14.249 14.9721 14.2479 14.6872 14.2479C14.5848 14.2479 14.4957 14.2323 14.4201 14.2011C14.3466 14.1678 14.2854 14.1244 14.2364 14.0709C14.1875 14.0175 14.1507 13.9563 14.1263 13.8873C14.1018 13.8161 14.0895 13.7404 14.0895 13.6603C14.0895 13.589 14.0984 13.5167 14.1162 13.4432C14.1363 13.3676 14.1641 13.2919 14.1997 13.2162C14.3154 12.9825 14.4668 12.7766 14.6538 12.5985C14.843 12.4205 15.0522 12.2713 15.2815 12.1511C15.513 12.0287 15.7567 11.9375 16.0127 11.8774C16.2686 11.815 16.5202 11.7839 16.7672 11.7839H16.8073C16.8251 11.7839 16.8429 11.785 16.8607 11.7872C16.8785 11.7872 16.8952 11.7872 16.9108 11.7872H16.9475L16.9208 12.6152C16.8496 12.6085 16.7784 12.6052 16.7071 12.6052C16.6003 12.6052 16.4923 12.6119 16.3833 12.6252C16.1985 12.6497 16.0216 12.6954 15.8524 12.7621C15.6855 12.8289 15.5308 12.9179 15.3883 13.0292C15.2459 13.1383 15.129 13.2707 15.0377 13.4266H16.1529C16.4244 13.4266 16.6504 13.4343 16.8307 13.4499C17.011 13.4655 17.1545 13.51 17.2614 13.5835C17.3682 13.6569 17.4428 13.7704 17.4851 13.924C17.5296 14.0776 17.5518 14.2913 17.5518 14.5651V14.939C17.5518 15.0036 17.5507 15.0715 17.5485 15.1427C17.5485 15.2117 17.5485 15.2863 17.5485 15.3664C17.5485 15.4243 17.5374 15.4788 17.5151 15.53C17.4951 15.579 17.4661 15.6224 17.4283 15.6602C17.3905 15.698 17.346 15.7281 17.2948 15.7503C17.2458 15.7704 17.1935 15.7804 17.1378 15.7804H13.5687V14.9524Z" fill="url(#paint22_linear_534_478)"/>
<path d="M18.2697 12.889H18.3565C18.8017 12.889 19.1756 12.9369 19.4783 13.0326C19.8011 13.1372 20.057 13.2919 20.2462 13.4967C20.4199 13.7081 20.5434 13.9708 20.6168 14.2846C20.6903 14.5985 20.727 14.9635 20.727 15.3797C20.727 15.4376 20.7159 15.4921 20.6936 15.5433C20.6714 15.5923 20.6413 15.6357 20.6035 15.6736C20.5679 15.7092 20.5245 15.7381 20.4733 15.7604C20.4221 15.7826 20.3687 15.7937 20.313 15.7937H18.0527V14.9657H19.889C19.8734 14.761 19.8445 14.5784 19.8022 14.4182C19.7599 14.2557 19.6998 14.1299 19.6219 14.0409C19.5195 13.9251 19.3604 13.8406 19.1444 13.7871C18.9441 13.7382 18.6826 13.7137 18.3598 13.7137H18.2764L18.2697 12.889ZM18.5869 12.0777C18.5869 12.0154 18.598 11.9575 18.6203 11.9041C18.6425 11.8506 18.6737 11.8039 18.7137 11.7638C18.7538 11.7238 18.8005 11.6926 18.854 11.6704C18.9074 11.6481 18.9642 11.637 19.0242 11.637C19.0866 11.637 19.1444 11.6481 19.1979 11.6704C19.2513 11.6926 19.298 11.7238 19.3381 11.7638C19.3782 11.8039 19.4093 11.8506 19.4316 11.9041C19.4561 11.9575 19.4683 12.0154 19.4683 12.0777C19.4683 12.1378 19.4561 12.1945 19.4316 12.248C19.4093 12.3014 19.3782 12.3481 19.3381 12.3882C19.298 12.4283 19.2513 12.4594 19.1979 12.4817C19.1444 12.5039 19.0866 12.5151 19.0242 12.5151C18.9642 12.5151 18.9074 12.5039 18.854 12.4817C18.8005 12.4594 18.7538 12.4283 18.7137 12.3882C18.6737 12.3481 18.6425 12.3014 18.6203 12.248C18.598 12.1945 18.5869 12.1378 18.5869 12.0777Z" fill="url(#paint23_linear_534_478)"/>
</g>
</g>
<defs>
<linearGradient id="paint0_linear_534_478" x1="19.9835" y1="21.7008" x2="17.0948" y2="24.0027" gradientUnits="userSpaceOnUse">
<stop stop-color="#037B6E"/>
<stop offset="1" stop-color="#1595B1"/>
</linearGradient>
<linearGradient id="paint1_linear_534_478" x1="22.4281" y1="20.4537" x2="19.5394" y2="22.7556" gradientUnits="userSpaceOnUse">
<stop stop-color="#037B6E"/>
<stop offset="1" stop-color="#1595B1"/>
</linearGradient>
<linearGradient id="paint2_linear_534_478" x1="24.3685" y1="18.5176" x2="21.4798" y2="20.8195" gradientUnits="userSpaceOnUse">
<stop stop-color="#037B6E"/>
<stop offset="1" stop-color="#1595B1"/>
</linearGradient>
<linearGradient id="paint3_linear_534_478" x1="25.618" y1="16.0781" x2="22.7293" y2="18.38" gradientUnits="userSpaceOnUse">
<stop stop-color="#037B6E"/>
<stop offset="1" stop-color="#1595B1"/>
</linearGradient>
<linearGradient id="paint4_linear_534_478" x1="26.0458" y1="13.3762" x2="23.157" y2="15.6781" gradientUnits="userSpaceOnUse">
<stop stop-color="#037B6E"/>
<stop offset="1" stop-color="#1595B1"/>
</linearGradient>
<linearGradient id="paint5_linear_534_478" x1="25.618" y1="10.6742" x2="22.7293" y2="12.9761" gradientUnits="userSpaceOnUse">
<stop stop-color="#037B6E"/>
<stop offset="1" stop-color="#1595B1"/>
</linearGradient>
<linearGradient id="paint6_linear_534_478" x1="24.3685" y1="8.23486" x2="21.4798" y2="10.5368" gradientUnits="userSpaceOnUse">
<stop stop-color="#037B6E"/>
<stop offset="1" stop-color="#1595B1"/>
</linearGradient>
<linearGradient id="paint7_linear_534_478" x1="22.4281" y1="6.29871" x2="19.5394" y2="8.60059" gradientUnits="userSpaceOnUse">
<stop stop-color="#037B6E"/>
<stop offset="1" stop-color="#1595B1"/>
</linearGradient>
<linearGradient id="paint8_linear_534_478" x1="19.9835" y1="5.05164" x2="17.0948" y2="7.35352" gradientUnits="userSpaceOnUse">
<stop stop-color="#037B6E"/>
<stop offset="1" stop-color="#1595B1"/>
</linearGradient>
<linearGradient id="paint9_linear_534_478" x1="17.2757" y1="4.625" x2="14.387" y2="6.92689" gradientUnits="userSpaceOnUse">
<stop stop-color="#037B6E"/>
<stop offset="1" stop-color="#1595B1"/>
</linearGradient>
<linearGradient id="paint10_linear_534_478" x1="14.5682" y1="5.05164" x2="11.6795" y2="7.35352" gradientUnits="userSpaceOnUse">
<stop stop-color="#037B6E"/>
<stop offset="1" stop-color="#1595B1"/>
</linearGradient>
<linearGradient id="paint11_linear_534_478" x1="12.1236" y1="6.29871" x2="9.23491" y2="8.60059" gradientUnits="userSpaceOnUse">
<stop stop-color="#037B6E"/>
<stop offset="1" stop-color="#1595B1"/>
</linearGradient>
<linearGradient id="paint12_linear_534_478" x1="10.1832" y1="8.23486" x2="7.29448" y2="10.5368" gradientUnits="userSpaceOnUse">
<stop stop-color="#037B6E"/>
<stop offset="1" stop-color="#1595B1"/>
</linearGradient>
<linearGradient id="paint13_linear_534_478" x1="8.93345" y1="10.6742" x2="6.04473" y2="12.9761" gradientUnits="userSpaceOnUse">
<stop stop-color="#037B6E"/>
<stop offset="1" stop-color="#1595B1"/>
</linearGradient>
<linearGradient id="paint14_linear_534_478" x1="8.50596" y1="13.3762" x2="5.61724" y2="15.6781" gradientUnits="userSpaceOnUse">
<stop stop-color="#037B6E"/>
<stop offset="1" stop-color="#1595B1"/>
</linearGradient>
<linearGradient id="paint15_linear_534_478" x1="8.93345" y1="16.0781" x2="6.04473" y2="18.38" gradientUnits="userSpaceOnUse">
<stop stop-color="#037B6E"/>
<stop offset="1" stop-color="#1595B1"/>
</linearGradient>
<linearGradient id="paint16_linear_534_478" x1="10.1832" y1="18.5176" x2="7.29448" y2="20.8195" gradientUnits="userSpaceOnUse">
<stop stop-color="#037B6E"/>
<stop offset="1" stop-color="#1595B1"/>
</linearGradient>
<linearGradient id="paint17_linear_534_478" x1="12.1236" y1="20.4537" x2="9.23491" y2="22.7556" gradientUnits="userSpaceOnUse">
<stop stop-color="#037B6E"/>
<stop offset="1" stop-color="#1595B1"/>
</linearGradient>
<linearGradient id="paint18_linear_534_478" x1="14.5682" y1="21.7008" x2="11.6795" y2="24.0027" gradientUnits="userSpaceOnUse">
<stop stop-color="#037B6E"/>
<stop offset="1" stop-color="#1595B1"/>
</linearGradient>
<linearGradient id="paint19_linear_534_478" x1="14.5681" y1="25.9057" x2="18.3018" y2="23.6351" gradientUnits="userSpaceOnUse">
<stop stop-color="#FF4444"/>
<stop offset="1" stop-color="#FFEAC0"/>
</linearGradient>
<linearGradient id="paint20_linear_534_478" x1="13.8004" y1="29.1667" x2="17.6561" y2="25.2675" gradientUnits="userSpaceOnUse">
<stop stop-color="#FF9315"/>
<stop offset="1" stop-color="#FFF0CB"/>
<stop offset="1" stop-color="#FFF0CB"/>
</linearGradient>
<linearGradient id="paint21_linear_534_478" x1="20.727" y1="11.637" x2="14.5014" y2="19.9259" gradientUnits="userSpaceOnUse">
<stop stop-color="#26A2B3"/>
<stop offset="1" stop-color="#41F0D1"/>
</linearGradient>
<linearGradient id="paint22_linear_534_478" x1="20.727" y1="11.637" x2="14.5014" y2="19.9259" gradientUnits="userSpaceOnUse">
<stop stop-color="#26A2B3"/>
<stop offset="1" stop-color="#41F0D1"/>
</linearGradient>
<linearGradient id="paint23_linear_534_478" x1="20.727" y1="11.637" x2="14.5014" y2="19.9259" gradientUnits="userSpaceOnUse">
<stop stop-color="#26A2B3"/>
<stop offset="1" stop-color="#41F0D1"/>
</linearGradient>
<clipPath id="clip0_534_478">
<rect width="32" height="32" rx="9.625" fill="white"/>
</clipPath>
<clipPath id="clip1_534_478">
<rect width="20.1707" height="28.0148" fill="white" transform="translate(5.875 4.625)"/>
</clipPath>
</defs>
</svg>
